<?xml version="1.0" encoding="UTF-8"?>
<svg xmlns="http://www.w3.org/2000/svg" xmlns:xlink="http://www.w3.org/1999/xlink" viewBox="0 0 163.73065 263.41233">
  <defs>
    <style>
      .uuid-a313b6e6-c844-4411-933c-f0b7639ad8bf {
        fill: url(#uuid-e1fd0fde-024a-4e45-9233-e4b1426e82fd);
        opacity: .53;
      }

      .uuid-a313b6e6-c844-4411-933c-f0b7639ad8bf, .uuid-83d6189a-73a8-4de5-9def-e5eb1692e132 {
        mix-blend-mode: overlay;
      }

      .uuid-8a6357b7-2bc9-4c38-8af4-fd2e9cee9b54 {
        fill: url(#uuid-27403caa-56d8-4ba1-8f8d-51b504a78403);
      }

      .uuid-83d6189a-73a8-4de5-9def-e5eb1692e132 {
        fill: url(#uuid-ddc023cc-b0e9-4cbd-bc7a-bbb4b42e6e27);
        opacity: .02;
      }

      .uuid-8b26e08c-10b6-4f1b-8082-b00684445422 {
        isolation: isolate;
      }

      .uuid-1be4ff4c-263c-48b8-aa09-304602f86a21 {
        fill: url(#uuid-ae7b56a8-6a41-4d6f-a16e-f0b4678309e9);
      }

      .uuid-2b4cb9d6-e531-4ee6-964a-c6bfc75e73ba {
        fill: url(#uuid-dce46f71-b0d1-417d-a422-beacd787f200);
      }

      .uuid-1806bb08-1811-4e2b-9e58-48b348414e02 {
        fill: url(#uuid-d2ccf942-9c9c-4257-9003-8704bf75b3f5);
      }

      .uuid-49b0107b-35f1-4683-8ca9-6d8a1947f160 {
        fill: url(#uuid-7bb8c28f-6e29-42da-9a55-f0711126aa90);
      }
    </style>
    <linearGradient id="uuid-7bb8c28f-6e29-42da-9a55-f0711126aa90" data-name="Gradient bez nazwy 58" x1="70.16654" y1="248.30493" x2="96.68056" y2="233.12968" gradientUnits="userSpaceOnUse">
      <stop offset="0" stop-color="#446230"/>
      <stop offset="1" stop-color="#c9dea6"/>
    </linearGradient>
    <linearGradient id="uuid-ae7b56a8-6a41-4d6f-a16e-f0b4678309e9" data-name="Gradient bez nazwy 58" x1="51.22908" y1="110.20986" x2="154.52491" y2="110.20986" xlink:href="#uuid-7bb8c28f-6e29-42da-9a55-f0711126aa90"/>
    <linearGradient id="uuid-dce46f71-b0d1-417d-a422-beacd787f200" data-name="Gradient bez nazwy 170" x1="76.1452" y1="194.40277" x2="145.81071" y2="126.31832" gradientUnits="userSpaceOnUse">
      <stop offset="0" stop-color="#c9dea6"/>
      <stop offset=".0688" stop-color="#b8ce97"/>
      <stop offset=".30329" stop-color="#86a06b"/>
      <stop offset=".50858" stop-color="#627e4a"/>
      <stop offset=".6747" stop-color="#4c6937"/>
      <stop offset=".78083" stop-color="#446230"/>
      <stop offset=".8808" stop-color="#456331"/>
      <stop offset=".91681" stop-color="#4c6936"/>
      <stop offset=".94247" stop-color="#58733f"/>
      <stop offset=".96307" stop-color="#69824c"/>
      <stop offset=".97723" stop-color="#7a9159"/>
    </linearGradient>
    <radialGradient id="uuid-27403caa-56d8-4ba1-8f8d-51b504a78403" data-name="Gradient bez nazwy 86" cx="41.45954" cy="78.82792" fx="41.45954" fy="78.82792" r="47.60601" gradientTransform="translate(123.03103 146.71937) rotate(152.76572) scale(1 1.23934)" gradientUnits="userSpaceOnUse">
      <stop offset=".42997" stop-color="#c9dea6"/>
      <stop offset=".72274" stop-color="#446230"/>
    </radialGradient>
    <linearGradient id="uuid-d2ccf942-9c9c-4257-9003-8704bf75b3f5" data-name="Gradient bez nazwy 156" x1="15.35601" y1="53.36008" x2="126.82605" y2="53.36008" gradientUnits="userSpaceOnUse">
      <stop offset="0" stop-color="#c9dea6"/>
      <stop offset=".06893" stop-color="#b8ce97"/>
      <stop offset=".30387" stop-color="#86a06b"/>
      <stop offset=".50956" stop-color="#627e4a"/>
      <stop offset=".67599" stop-color="#4c6937"/>
      <stop offset=".78233" stop-color="#446230"/>
      <stop offset=".89312" stop-color="#456331"/>
      <stop offset=".93303" stop-color="#4c6936"/>
      <stop offset=".96147" stop-color="#58733f"/>
      <stop offset=".9843" stop-color="#69824c"/>
      <stop offset="1" stop-color="#7a9159"/>
    </linearGradient>
    <linearGradient id="uuid-e1fd0fde-024a-4e45-9233-e4b1426e82fd" data-name="Gradient bez nazwy 78" x1="24.93074" y1="130.89798" x2="158.85003" y2="75.90101" gradientUnits="userSpaceOnUse">
      <stop offset="0" stop-color="#446230" stop-opacity="0"/>
      <stop offset="1" stop-color="#c9dea6"/>
    </linearGradient>
    <linearGradient id="uuid-ddc023cc-b0e9-4cbd-bc7a-bbb4b42e6e27" data-name="Gradient bez nazwy 78" x1="11.05095" y1="113.10754" x2="155.70572" y2="107.20448" xlink:href="#uuid-e1fd0fde-024a-4e45-9233-e4b1426e82fd"/>
  </defs>
  <g class="uuid-8b26e08c-10b6-4f1b-8082-b00684445422">
    <g id="uuid-d1fec208-fe2b-43df-b0be-33363a3d01c6" data-name="Warstwa 1">
      <g>
        <circle class="uuid-49b0107b-35f1-4683-8ca9-6d8a1947f160" cx="83.42355" cy="240.71731" r="15.27223"/>
        <path class="uuid-1be4ff4c-263c-48b8-aa09-304602f86a21" d="M154.52491,79.77492c0,4.52666-.40574,8.98528-1.2164,13.30906-.06721.06762-.06721.13525-.06721.20246-1.75656,4.99961-3.51313,9.93118-5.47215,14.79513,0,.06762-.06762.13525-.06762.20287-.13525.40533-.33812.74303-.47295,1.14836-.40533,1.28361-.94591,2.43197-1.41886,3.71559-.06762.13525-.13525.27049-.20246.40533v.06762c-.13525.27049-.20287.47295-.33812.74345-4.7287,10.20085-13.1734,18.30784-23.50991,22.83409-3.51313.67582-6.82338,1.62173-10.06602,2.97255-19.7267,8.03937-33.71117,27.42837-33.71117,50.12803,0,8.03937,1.75656,15.67341,4.93157,22.56401q0,.06762-.06762.13525c-5.20165-5.74223-10.20126-11.62012-14.92996-17.70006l-.13525-.13525c-3.37788-4.25616-6.62051-8.57953-9.72831-12.97094-3.51313-6.48568-5.80985-13.71439-6.55289-21.41564-.20287-1.75656-.27049-3.64837-.27049-5.47215,0-3.31067.27049-6.62092.87828-9.72831,1.35123-7.90454,4.39141-15.20046,8.64757-21.61851,1.01312-1.55369,2.16148-3.04017,3.31026-4.45903,3.64796-4.45862,7.97175-8.30945,12.8357-11.48446,3.04017-1.95943,6.28281-3.716,9.72831-5.06682,2.4996-1.08115,3.58075-1.75656,5.20207-2.43239.20287-.06721.33771-.13483.47295-.20246.54058-.20287,1.08074-.40533,1.62132-.6082.06762-.06762.13525-.06762.20287-.13483.40533-.20287.60779-.27049.74303-.33812.13483-.06721.27008-.13483.40533-.20246.06762-.06762.20246-.13525.40533-.27008l.06762-.06762c18.10539-6.48568,31.07633-23.84803,31.07633-44.25055,0-25.60418-20.53736-46.47925-46.00671-46.9522.40533-.06762.87828-.06762,1.28361-.06762,12.83611,0,24.92877,3.37788,35.40011,9.25536,11.62012,6.48568,21.21318,16.07874,27.76607,27.63083.20287.33812.40533.74345.6082,1.08115,5.53977,10.20126,8.64757,21.95622,8.64757,34.38658Z"/>
        <path class="uuid-2b4cb9d6-e531-4ee6-964a-c6bfc75e73ba" d="M145.26914,114.36479c-.40533.94549-.74303,1.8914-1.14836,2.8373q-.06762,0-.06762.06762c-.60779,1.41845-1.21599,2.8373-1.82377,4.18854v.06762c-.67582,1.41845-1.28361,2.76968-1.95943,4.12091-.81066,1.75656-1.62132,3.51313-2.4996,5.26928-.87828,1.82419-1.68894,3.58075-2.63485,5.33731-12.22791,24.65827-27.42837,47.62802-45.19605,68.50309-.87787,1.01353-1.75615,2.09468-2.63443,3.1078-1.41886,1.62132-2.90493,3.37788-4.39141,4.9992-3.17501-6.89059-4.93157-14.52464-4.93157-22.56401,0-22.69967,13.98447-42.08866,33.71117-50.12803,3.24263-1.35082,6.55289-2.29673,10.06602-2.97255,10.33651-4.52624,18.78121-12.63324,23.50991-22.83409Z"/>
        <path class="uuid-8a6357b7-2bc9-4c38-8af4-fd2e9cee9b54" d="M26.43556,99.23154c-3.71559,2.22952-7.16109,4.79674-10.47134,7.63404-.27049.13525-.47295.33812-.67582.54058-2.8373-6.68814-4.66149-13.84922-5.26928-21.41564-.13525-1.55411-.20287-3.17542-.27049-4.79674v-1.41886c0-16.07833,5.26969-30.94108,14.11972-42.96653.54058-.74303,1.08074-1.41845,1.68894-2.09427-6.41805,8.91765-10.20126,19.79433-10.20126,31.6169,0,12.43078,4.12091,23.78041,11.07954,32.90052Z"/>
        <path class="uuid-1806bb08-1811-4e2b-9e58-48b348414e02" d="M126.82605,54.44082c0,5.74264-1.01312,11.28242-2.97255,16.34923-4.72911,12.97094-15.13284,23.23983-28.10378,27.90132,3.85083-3.04017,6.62051-7.29634,7.63404-12.36316.33771-1.35123.47295-2.8373.47295-4.32379,0-11.75496-9.59348-21.2804-21.34843-21.2804-8.64716,0-16.14636,5.20165-19.389,12.63324-.74303,1.48607-1.21599,3.03976-1.55369,4.59387-.20287,1.35123-.33812,2.70206-.33812,4.05329,0,1.14836.13525,2.22952.27049,3.31026-1.35123.27049-2.70247.54058-3.98608.87828-3.31026.74345-6.55289,1.68894-9.66069,2.70247-1.95902.67541-3.91846,1.41886-5.80985,2.16189-3.58075,1.48607-7.16109,3.17501-10.53897,5.06682-1.68894.94591-3.37788,1.95902-4.9992,3.04017,0,0-.06762,0-.06762.06721-6.95863-9.12011-11.07954-20.46974-11.07954-32.90052,0-11.82258,3.78321-22.69925,10.20126-31.6169,4.05329-5.13444,8.85003-9.72831,14.11972-13.51152.27008-.20246.54016-.47295.87787-.67541.27049-.27049.6082-.47295.94591-.67582.13525-.06721.20287-.13483.33771-.20246,4.59428-3.04017,9.52585-5.67502,14.86275-7.63404.74303-.27008,1.48648-.54058,2.16189-.74303,3.4455-1.21599,7.02584-2.09427,10.74184-2.70247.20246-.06762.40533-.13525.60779-.13525,3.4455-.60779,6.95863-.94549,10.60659-.94549,25.46935.47295,46.00671,21.34802,46.00671,46.9522Z"/>
        <path class="uuid-a313b6e6-c844-4411-933c-f0b7639ad8bf" d="M154.52449,79.77533c0,4.52624-.40533,8.98486-1.21599,13.30865-.06762.06762-.06762.13525-.06762.20287-1.75656,4.9992-3.51313,9.93077-5.47215,14.79513,0,.06721-.06762.13483-.06762.20246-.13483.40533-.33771.74303-.47295,1.14836-.40533,1.28361-.94549,2.43239-1.41845,3.716-.06762.13483-.13525.27008-.20287.40533v.06721c-.13525.27049-.20246.47295-.33771.74345-.40533.94549-.74303,1.8914-1.14836,2.8373q-.06762,0-.06762.06762c-.6082,1.41845-1.21599,2.8373-1.82419,4.18854v.06762c-.67541,1.41845-1.28361,2.76968-1.95902,4.12091-.81066,1.75656-1.62132,3.51313-2.4996,5.26969-.87828,1.82377-1.68894,3.58034-2.63485,5.3369-12.22791,24.65827-27.42837,47.62802-45.19605,68.5035-.87828,1.01312-1.75656,2.09427-2.63485,3.10739-1.41845,1.62132-2.90493,3.37788-4.391,4.9992q0,.06762-.06762.13525c-5.20207-5.74223-10.20126-11.61971-14.93038-17.70006l-.13525-.13525c-3.37788-4.25616-6.62051-8.57953-9.7279-12.97094-3.51313-6.48568-5.81027-13.71398-6.5533-21.41564-.20246-1.75656-.27008-3.64837-.27008-5.47215,0-3.31026.27008-6.62092.87828-9.72831,1.35082-7.90412,4.391-15.20046,8.64716-21.61851,1.01353-1.55369,2.16189-3.04017,3.31026-4.45862,3.64837-4.45903,7.97175-8.30986,12.83611-11.48487,3.04017-1.95943,6.28281-3.71559,9.72831-5.06682,2.4996-1.08115,3.58034-1.75656,5.20207-2.43197.20246-.06762.33771-.13525.47254-.20287.54058-.20287,1.08115-.40533,1.62173-.6082.06721-.06721.13483-.06721.20246-.13483.40533-.20287.6082-.27049.74303-.33771.13525-.06762.27049-.13525.40533-.20287.06762-.06762.20287-.13525.40533-.27008l.06762-.06762c3.85083-3.04017,6.62092-7.29634,7.63404-12.36316.33771-1.35123.47295-2.8373.47295-4.32379,0-11.75496-9.59306-21.2804-21.34802-21.2804-8.64757,0-16.14636,5.20165-19.389,12.63324-.74345,1.48607-1.2164,3.04017-1.55411,4.59387-.20246,1.35123-.33771,2.70247-.33771,4.05329,0,1.14878.13525,2.22952.27008,3.31067-1.35082.27008-2.70206.54016-3.98567.87787-3.31026.74345-6.5533,1.68894-9.66069,2.70247-1.95943.67541-3.91846,1.41886-5.81027,2.16189-3.58034,1.48607-7.16109,3.17501-10.53897,5.06682-1.68894.94591-3.37788,1.95902-4.9992,3.04017,0,0-.06762,0-.06762.06762-3.71559,2.2291-7.16109,4.79633-10.47134,7.63363-.27008.13525-.47295.33812-.67541.54058-2.8373-6.68814-4.66149-13.84922-5.26969-21.41564-.13483-1.55369-.20246-3.17542-.27008-4.79674v-1.41845c0-16.07874,5.26928-30.94149,14.11931-42.96694.54058-.74303,1.08115-1.41845,1.68894-2.09427,4.0537-5.13403,8.85044-9.72831,14.11972-13.51152.27008-.20246.54058-.47295.87828-.67541.27008-.27008.6082-.47295.94591-.67541.13483-.06762.20246-.13525.33771-.20287,4.59387-3.04017,9.52544-5.67502,14.86275-7.63404.74303-.27008,1.48607-.54058,2.16189-.74303,3.44509-1.21599,7.02584-2.09427,10.74143-2.70247.20287-.06762.40533-.13483.6082-.13483,3.4455-.6082,6.95822-.94591,10.60659-.94591.40533-.06762.87828-.06762,1.28361-.06762,12.8357,0,24.92877,3.37788,35.40011,9.25536,11.61971,6.48568,21.21277,16.07874,27.76607,27.63124.20246.33771.40533.74303.6082,1.08074,5.53936,10.20126,8.64716,21.95622,8.64716,34.387Z"/>
      </g>
      <path class="uuid-83d6189a-73a8-4de5-9def-e5eb1692e132" d="M154.52449,79.77533c0,4.52624-.40533,8.98486-1.21599,13.30865-.06762.06762-.06762.13525-.06762.20287-1.75656,4.9992-3.51313,9.93077-5.47215,14.79513,0,.06721-.06762.13483-.06762.20246-.13483.40533-.33771.74303-.47295,1.14836-.40533,1.28361-.94549,2.43239-1.41845,3.716-.06762.13483-.13525.27008-.20287.40533v.06721c-.13525.27049-.20246.47295-.33771.74345-.40533.94549-.74303,1.8914-1.14836,2.8373q-.06762,0-.06762.06762c-.6082,1.41845-1.21599,2.8373-1.82419,4.18854v.06762c-.67541,1.41845-1.28361,2.76968-1.95902,4.12091-.81066,1.75656-1.62132,3.51313-2.4996,5.26969-.87828,1.82377-1.68894,3.58034-2.63485,5.3369-12.22791,24.65827-27.42837,47.62802-45.19605,68.5035-.87828,1.01312-1.75656,2.09427-2.63485,3.10739-1.41845,1.62132-2.90493,3.37788-4.391,4.9992q0,.06762-.06762.13525c-5.20207-5.74223-10.20126-11.61971-14.93038-17.70006l-.13525-.13525c-3.37788-4.25616-6.62051-8.57953-9.7279-12.97094-3.51313-6.48568-5.81027-13.71398-6.5533-21.41564-.20246-1.75656-.27008-3.64837-.27008-5.47215,0-3.31026.27008-6.62092.87828-9.72831,1.35082-7.90412,4.391-15.20046,8.64716-21.61851,1.01353-1.55369,2.16189-3.04017,3.31026-4.45862,3.64837-4.45903,7.97175-8.30986,12.83611-11.48487,3.04017-1.95943,6.28281-3.71559,9.72831-5.06682,2.4996-1.08115,3.58034-1.75656,5.20207-2.43197.20246-.06762.33771-.13525.47254-.20287.54058-.20287,1.08115-.40533,1.62173-.6082.06721-.06721.13483-.06721.20246-.13483.40533-.20287.6082-.27049.74303-.33771.13525-.06762.27049-.13525.40533-.20287.06762-.06762.20287-.13525.40533-.27008l.06762-.06762c3.85083-3.04017,6.62092-7.29634,7.63404-12.36316.33771-1.35123.47295-2.8373.47295-4.32379,0-11.75496-9.59306-21.2804-21.34802-21.2804-8.64757,0-16.14636,5.20165-19.389,12.63324-.74345,1.48607-1.2164,3.04017-1.55411,4.59387-.20246,1.35123-.33771,2.70247-.33771,4.05329,0,1.14878.13525,2.22952.27008,3.31067-1.35082.27008-2.70206.54016-3.98567.87787-3.31026.74345-6.5533,1.68894-9.66069,2.70247-1.95943.67541-3.91846,1.41886-5.81027,2.16189-3.58034,1.48607-7.16109,3.17501-10.53897,5.06682-1.68894.94591-3.37788,1.95902-4.9992,3.04017,0,0-.06762,0-.06762.06762-3.71559,2.2291-7.16109,4.79633-10.47134,7.63363-.27008.13525-.47295.33812-.67541.54058-2.8373-6.68814-4.66149-13.84922-5.26969-21.41564-.13483-1.55369-.20246-3.17542-.27008-4.79674v-1.41845c0-16.07874,5.26928-30.94149,14.11931-42.96694.54058-.74303,1.08115-1.41845,1.68894-2.09427,4.0537-5.13403,8.85044-9.72831,14.11972-13.51152.27008-.20246.54058-.47295.87828-.67541.27008-.27008.6082-.47295.94591-.67541.13483-.06762.20246-.13525.33771-.20287,4.59387-3.04017,9.52544-5.67502,14.86275-7.63404.74303-.27008,1.48607-.54058,2.16189-.74303,3.44509-1.21599,7.02584-2.09427,10.74143-2.70247.20287-.06762.40533-.13483.6082-.13483,3.4455-.6082,6.95822-.94591,10.60659-.94591.40533-.06762.87828-.06762,1.28361-.06762,12.8357,0,24.92877,3.37788,35.40011,9.25536,11.61971,6.48568,21.21277,16.07874,27.76607,27.63124.20246.33771.40533.74303.6082,1.08074,5.53936,10.20126,8.64716,21.95622,8.64716,34.387Z"/>
    </g>
  </g>
</svg>