<svg width="196" height="195" viewBox="0 0 196 195" fill="none" xmlns="http://www.w3.org/2000/svg">
<path d="M118.174 126.303C129.804 127.195 141.326 128.76 152.652 131.544C163.935 134.306 174.913 137.85 184.652 144.396C187.935 146.593 190.891 149.202 193.043 152.573C196.304 157.705 196.326 162.859 193.043 167.969C190.413 172.079 186.674 175.015 182.565 177.538C174.109 182.735 164.826 185.91 155.283 188.367C140.717 192.108 125.87 193.956 110.848 194.674C99.7608 195.217 88.6739 195.087 77.6087 194.217C59.0869 192.738 40.8478 189.824 23.5435 182.648C16.913 179.908 10.6087 176.581 5.56519 171.296C-1.1522 164.251 -1.23916 156.465 5.43476 149.376C10.3913 144.113 16.6521 140.83 23.1956 138.046C34.7391 133.153 46.8695 130.37 59.1956 128.434C65.3695 127.456 71.5652 126.782 77.8043 126.303C77.8043 132.827 77.8043 139.329 77.8043 145.853C74.6522 146.201 71.5869 146.984 68.5869 147.919C63.1739 149.637 57.7826 151.464 53.913 156.03C52.2826 157.944 51.8043 160.597 52.8695 162.859C54.3043 165.903 56.913 167.665 59.7609 169.1C70.3478 174.471 81.8478 175.841 93.4348 176.363C104.065 176.842 114.652 175.95 125 173.297C130.13 171.971 135.109 170.187 139.456 167.056C144.913 163.142 145.022 157.705 139.652 153.704C133.261 148.963 125.761 147.158 118.109 145.831C118.109 139.329 118.109 132.805 118.109 126.303H118.174Z" fill="#8AB4F8"/>
<path d="M77.8261 145.853C77.8261 139.329 77.8261 132.827 77.8261 126.303C77.8261 119.801 77.8261 113.277 77.8913 106.775C77.8913 105.709 77.6305 105.361 76.5218 105.296C68.4783 104.731 63.3044 99.2071 63.2609 91.1609C63.2174 80.4617 63.1957 69.7625 63.2609 59.0632C63.3044 50.6256 69.087 44.8846 77.5 44.8628C91.1522 44.8628 104.826 44.8628 118.478 44.8628C126.804 44.8628 132.63 50.5386 132.717 58.8675C132.804 69.6972 132.804 80.5269 132.717 91.3566C132.652 99.2941 127.435 104.752 119.457 105.318C118.348 105.405 118.065 105.753 118.087 106.797C118.152 113.299 118.152 119.823 118.152 126.325C118.152 132.827 118.152 139.351 118.152 145.853C118.152 147.071 118.152 148.31 118.087 149.528C117.783 156.596 110.109 161.141 103.761 158.075C100.804 156.639 99.087 154.204 98 150.811C97.6522 151.681 97.4783 152.203 97.2609 152.703C95.3913 157.053 91.2609 159.488 86.587 158.988C82.5435 158.553 78.8044 155.008 78.0435 150.659C77.7609 149.093 77.8913 147.462 77.8261 145.853Z" fill="#A8DAB5"/>
<path d="M117.13 19.0933C117.217 29.4881 108.739 38.2302 98.4565 38.3172C87.5435 38.4042 78.913 30.01 78.8696 19.2456C78.8261 8.7638 87.3043 0.108733 97.7391 1.31107e-06C108.413 -0.108731 117.043 8.39411 117.13 19.0933Z" fill="#A8DAB5"/>
<path d="M77.8261 145.853C77.8913 147.462 77.7826 149.093 78.0435 150.659C78.8044 155.03 82.5218 158.575 86.587 158.988C91.2826 159.488 95.4131 157.053 97.2609 152.703C97.4783 152.203 97.674 151.681 98 150.811C99.087 154.204 100.804 156.639 103.761 158.075C110.13 161.141 117.783 156.596 118.087 149.528C118.152 148.31 118.13 147.071 118.152 145.853C125.804 147.18 133.304 148.963 139.696 153.725C145.065 157.727 144.957 163.163 139.5 167.078C135.13 170.209 130.174 171.992 125.044 173.319C114.696 175.972 104.109 176.863 93.4783 176.385C81.8696 175.863 70.3696 174.493 59.8044 169.122C56.9783 167.687 54.3479 165.925 52.9131 162.881C51.8479 160.597 52.3261 157.966 53.9566 156.052C57.8261 151.485 63.2174 149.637 68.6305 147.941C71.6305 146.984 74.6957 146.201 77.8479 145.875L77.8261 145.853Z" fill="#C8EEA8"/>
</svg>
